# xmcd
#
# Track frame offsets:
#	150
#	10724
#	21992
#	33372
#	44389
#	55522
#	68155
#	80973
#	96563
#	106697
#	119783
#	131615
#
# Disc length: 1928 seconds
#
# Revision: 1
# Processed by: cddbd v1.5.2PL0 Copyright (c) Steve Scherf et al.
# Submitted via: EZCDAudioConverter 4.0.2.1
#
DISCID=a107860c
DTITLE=Howlin' Wolf - Off The Record
DYEAR=1989
DGENRE=Blues
TTITLE0=Shake For Me
TTITLE1=Red Rooster
TTITLE2=You'll Be Mine
TTITLE3=Who's Been Talkin'
TTITLE4=Wang-Dang-Doodle
TTITLE5=Little Baby
TTITLE6=Spoonful
TTITLE7=Goin' Down Slow
TTITLE8=Down In The Bottom
TTITLE9=Back Door Man
TTITLE10=Hawlin' For My Baby
TTITLE11=Tell Me
EXTD=
EXTT0=
EXTT1=
EXTT2=
EXTT3=
EXTT4=
EXTT5=
EXTT6=
EXTT7=
EXTT8=
EXTT9=
EXTT10=
EXTT11=
PLAYORDER=
